<mxfile host="app.diagrams.net" agent="Mozilla/5.0 (X11; Linux x86_64) AppleWebKit/537.36 (KHTML, like Gecko) Chrome/120.0.0.0 Safari/537.36" version="24.7.7">
  <diagram name="Page-1" id="5f0bae14-7c28-e335-631c-24af17079c00">
    <mxGraphModel dx="1434" dy="820" grid="1" gridSize="10" guides="1" tooltips="1" connect="1" arrows="1" fold="1" page="1" pageScale="1" pageWidth="1169" pageHeight="827" background="none" math="0" shadow="0">
      <root>
        <mxCell id="0" />
        <mxCell id="1" parent="0" />
        <mxCell id="39150e848f15840c-1" value="" style="verticalAlign=top;align=left;spacingTop=8;spacingLeft=2;spacingRight=12;shape=cube;size=10;direction=south;fontStyle=4;html=1;rounded=0;shadow=0;comic=0;labelBackgroundColor=none;strokeWidth=1;fontFamily=Verdana;fontSize=12" parent="1" vertex="1">
          <mxGeometry x="120" y="70" width="180" height="140" as="geometry" />
        </mxCell>
        <mxCell id="39150e848f15840c-3" value="Components" style="verticalAlign=top;align=left;spacingTop=8;spacingLeft=2;spacingRight=12;shape=cube;size=10;direction=south;fontStyle=4;html=1;rounded=0;shadow=0;comic=0;labelBackgroundColor=none;strokeWidth=1;fontFamily=Verdana;fontSize=12" parent="1" vertex="1">
          <mxGeometry x="362" y="60" width="210" height="340" as="geometry" />
        </mxCell>
        <mxCell id="39150e848f15840c-4" value="LibP2P&lt;br&gt;&lt;b&gt;Networking&lt;/b&gt;" style="html=1;rounded=0;shadow=0;comic=0;labelBackgroundColor=none;strokeWidth=1;fontFamily=Verdana;fontSize=12;align=center;" parent="1" vertex="1">
          <mxGeometry x="155" y="110" width="110" height="50" as="geometry" />
        </mxCell>
        <mxCell id="39150e848f15840c-7" value="Provider" style="shape=component;align=left;spacingLeft=36;rounded=0;shadow=0;comic=0;labelBackgroundColor=none;strokeWidth=1;fontFamily=Verdana;fontSize=12;html=1;" parent="1" vertex="1">
          <mxGeometry x="402" y="210" width="120" height="60" as="geometry" />
        </mxCell>
        <mxCell id="39150e848f15840c-10" value="Indexer" style="shape=component;align=left;spacingLeft=36;rounded=0;shadow=0;comic=0;labelBackgroundColor=none;strokeWidth=1;fontFamily=Verdana;fontSize=12;html=1;" parent="1" vertex="1">
          <mxGeometry x="405" y="124" width="120" height="60" as="geometry" />
        </mxCell>
        <mxCell id="39150e848f15840c-11" style="edgeStyle=none;rounded=0;html=1;dashed=1;labelBackgroundColor=none;startArrow=classic;startFill=1;endArrow=classic;endFill=1;fontFamily=Verdana;fontSize=12;entryX=0.563;entryY=-0.011;entryDx=0;entryDy=0;entryPerimeter=0;exitX=0.221;exitY=1.005;exitDx=0;exitDy=0;exitPerimeter=0;" parent="1" source="39150e848f15840c-3" target="fq037zu-ZhPwcoGEC1Z5-2" edge="1">
          <mxGeometry relative="1" as="geometry">
            <mxPoint x="379.0981904829623" y="244.15005179924594" as="targetPoint" />
          </mxGeometry>
        </mxCell>
        <mxCell id="fq037zu-ZhPwcoGEC1Z5-2" value="" style="verticalAlign=top;align=left;spacingTop=8;spacingLeft=2;spacingRight=12;shape=cube;size=10;direction=south;fontStyle=4;html=1;rounded=0;shadow=0;comic=0;labelBackgroundColor=none;strokeWidth=1;fontFamily=Verdana;fontSize=12" parent="1" vertex="1">
          <mxGeometry x="120" y="250" width="190" height="120" as="geometry" />
        </mxCell>
        <mxCell id="fq037zu-ZhPwcoGEC1Z5-3" value="HTTP API" style="html=1;rounded=0;shadow=0;comic=0;labelBackgroundColor=none;strokeWidth=1;fontFamily=Verdana;fontSize=12;align=center;" parent="1" vertex="1">
          <mxGeometry x="155" y="290" width="110" height="50" as="geometry" />
        </mxCell>
        <mxCell id="fq037zu-ZhPwcoGEC1Z5-4" style="edgeStyle=none;rounded=0;html=1;dashed=1;labelBackgroundColor=none;startArrow=classic;startFill=1;endArrow=classic;endFill=1;fontFamily=Verdana;fontSize=12;entryX=0.513;entryY=0.011;entryDx=0;entryDy=0;entryPerimeter=0;exitX=0.238;exitY=1.005;exitDx=0;exitDy=0;exitPerimeter=0;" parent="1" source="39150e848f15840c-3" target="39150e848f15840c-1" edge="1">
          <mxGeometry relative="1" as="geometry">
            <mxPoint x="450" y="152" as="sourcePoint" />
            <mxPoint x="322" y="350" as="targetPoint" />
          </mxGeometry>
        </mxCell>
        <mxCell id="fq037zu-ZhPwcoGEC1Z5-17" style="edgeStyle=none;rounded=0;html=1;dashed=1;labelBackgroundColor=none;startArrow=classic;startFill=1;endArrow=classic;endFill=1;fontFamily=Verdana;fontSize=12;entryX=0;entryY=0;entryDx=65;entryDy=210;entryPerimeter=0;exitX=0.487;exitY=-0.033;exitDx=0;exitDy=0;exitPerimeter=0;" parent="1" source="39150e848f15840c-3" target="fq037zu-ZhPwcoGEC1Z5-11" edge="1">
          <mxGeometry relative="1" as="geometry">
            <mxPoint x="680" y="280" as="sourcePoint" />
            <mxPoint x="780" y="145" as="targetPoint" />
          </mxGeometry>
        </mxCell>
        <mxCell id="fq037zu-ZhPwcoGEC1Z5-18" style="edgeStyle=none;rounded=0;html=1;dashed=1;labelBackgroundColor=none;startArrow=classic;startFill=1;endArrow=classic;endFill=1;fontFamily=Verdana;fontSize=12;entryX=0.475;entryY=1.019;entryDx=0;entryDy=0;entryPerimeter=0;exitX=0;exitY=0;exitDx=190;exitDy=0;exitPerimeter=0;" parent="1" source="39150e848f15840c-3" target="fq037zu-ZhPwcoGEC1Z5-13" edge="1">
          <mxGeometry relative="1" as="geometry">
            <mxPoint x="690" y="290" as="sourcePoint" />
            <mxPoint x="790" y="155" as="targetPoint" />
          </mxGeometry>
        </mxCell>
        <mxCell id="fq037zu-ZhPwcoGEC1Z5-20" value="&lt;div&gt;Multiple C2D&lt;/div&gt;&lt;div&gt;Engines&lt;/div&gt;" style="shape=component;align=left;spacingLeft=36;rounded=0;shadow=0;comic=0;labelBackgroundColor=none;strokeWidth=1;fontFamily=Verdana;fontSize=12;html=1;" parent="1" vertex="1">
          <mxGeometry x="432" y="290" width="120" height="60" as="geometry" />
        </mxCell>
        <mxCell id="fq037zu-ZhPwcoGEC1Z5-21" style="edgeStyle=none;rounded=0;html=1;dashed=1;labelBackgroundColor=none;startArrow=classic;startFill=1;endArrow=classic;endFill=1;fontFamily=Verdana;fontSize=12;entryX=0.058;entryY=0.6;entryDx=0;entryDy=0;entryPerimeter=0;exitX=0.25;exitY=1;exitDx=0;exitDy=0;" parent="1" source="39150e848f15840c-7" target="fq037zu-ZhPwcoGEC1Z5-20" edge="1">
          <mxGeometry relative="1" as="geometry">
            <mxPoint x="371" y="156" as="sourcePoint" />
            <mxPoint x="334" y="328" as="targetPoint" />
          </mxGeometry>
        </mxCell>
        <mxCell id="fq037zu-ZhPwcoGEC1Z5-22" value="Ocean Node" style="swimlane;whiteSpace=wrap;html=1;" parent="1" vertex="1">
          <mxGeometry x="90" y="20" width="830" height="400" as="geometry" />
        </mxCell>
        <mxCell id="fq037zu-ZhPwcoGEC1Z5-25" value="" style="shape=flexArrow;endArrow=classic;html=1;rounded=0;startArrow=block;" parent="fq037zu-ZhPwcoGEC1Z5-22" target="39150e848f15840c-1" edge="1">
          <mxGeometry width="50" height="50" relative="1" as="geometry">
            <mxPoint x="-80" y="120" as="sourcePoint" />
            <mxPoint x="230" y="230" as="targetPoint" />
          </mxGeometry>
        </mxCell>
        <mxCell id="fq037zu-ZhPwcoGEC1Z5-11" value="Module" style="verticalAlign=top;align=left;spacingTop=8;spacingLeft=2;spacingRight=12;shape=cube;size=10;direction=south;fontStyle=4;html=1;rounded=0;shadow=0;comic=0;labelBackgroundColor=none;strokeWidth=1;fontFamily=Verdana;fontSize=12" parent="fq037zu-ZhPwcoGEC1Z5-22" vertex="1">
          <mxGeometry x="565" y="40" width="210" height="120" as="geometry" />
        </mxCell>
        <mxCell id="fq037zu-ZhPwcoGEC1Z5-12" value="Database&lt;br&gt;Storage&lt;br&gt;Wrapper" style="shape=component;align=left;spacingLeft=36;rounded=0;shadow=0;comic=0;labelBackgroundColor=none;strokeWidth=1;fontFamily=Verdana;fontSize=12;html=1;" parent="fq037zu-ZhPwcoGEC1Z5-22" vertex="1">
          <mxGeometry x="610" y="70" width="120" height="60" as="geometry" />
        </mxCell>
        <mxCell id="fq037zu-ZhPwcoGEC1Z5-13" value="Module" style="verticalAlign=top;align=left;spacingTop=8;spacingLeft=2;spacingRight=12;shape=cube;size=10;direction=south;fontStyle=4;html=1;rounded=0;shadow=0;comic=0;labelBackgroundColor=none;strokeWidth=1;fontFamily=Verdana;fontSize=12" parent="fq037zu-ZhPwcoGEC1Z5-22" vertex="1">
          <mxGeometry x="560" y="260" width="210" height="120" as="geometry" />
        </mxCell>
        <mxCell id="fq037zu-ZhPwcoGEC1Z5-14" value="&lt;div&gt;Light Docker&lt;/div&gt;&lt;div&gt;C2d&lt;/div&gt;&lt;div&gt;&lt;br&gt;&lt;/div&gt;" style="shape=component;align=left;spacingLeft=36;rounded=0;shadow=0;comic=0;labelBackgroundColor=none;strokeWidth=1;fontFamily=Verdana;fontSize=12;html=1;" parent="fq037zu-ZhPwcoGEC1Z5-22" vertex="1">
          <mxGeometry x="605" y="300" width="120" height="60" as="geometry" />
        </mxCell>
        <mxCell id="fq037zu-ZhPwcoGEC1Z5-26" value="" style="shape=flexArrow;endArrow=classic;html=1;rounded=0;startArrow=block;" parent="1" edge="1">
          <mxGeometry width="50" height="50" relative="1" as="geometry">
            <mxPoint x="10" y="319" as="sourcePoint" />
            <mxPoint x="120" y="319" as="targetPoint" />
          </mxGeometry>
        </mxCell>
      </root>
    </mxGraphModel>
  </diagram>
</mxfile>
